<?xml version="1.0" encoding="utf-8"?>
<!-- Generator: Adobe Illustrator 26.0.3, SVG Export Plug-In . SVG Version: 6.00 Build 0)  -->
<svg version="1.1" id="Layer_1" xmlns="http://www.w3.org/2000/svg" xmlns:xlink="http://www.w3.org/1999/xlink" x="0px" y="0px"
	 viewBox="0 0 1440 492.9" style="enable-background:new 0 0 1440 492.9;" xml:space="preserve">
<style type="text/css">
	.st0{opacity:0.25;fill:#B9CBDC;enable-background:new    ;}
	.st1{fill:none;stroke:#B9CBDC;stroke-width:2;stroke-opacity:0.25;}
	.st2{fill-rule:evenodd;clip-rule:evenodd;fill:#A3B6F0;fill-opacity:0.25;}
</style>
<path class="st0" d="M1440,0H0v329.3c0,12.7,10,23.3,22.7,24l1392,77.3c13.8,0.8,25.3-10.2,25.3-24V0z"/>
<path class="st1" d="M1451.5-173.7c-27.6-36.4-82.4-36.4-110,0c-14.6,19.3-38.5,29.2-62.5,25.9c-45.3-6.2-84,32.5-77.8,77.8
	c3.3,24-6.6,47.9-25.9,62.5c-36.4,27.6-36.4,82.4,0,110c19.3,14.6,29.2,38.5,25.9,62.5c-6.2,45.3,32.5,84,77.8,77.8
	c24-3.3,47.9,6.6,62.5,25.9c27.6,36.4,82.4,36.4,110,0c14.6-19.3,38.5-29.2,62.5-25.9c45.3,6.2,84-32.5,77.8-77.8
	c-3.3-24,6.6-47.9,25.9-62.5c36.4-27.6,36.4-82.4,0-110c-19.3-14.6-29.2-38.5-25.9-62.5c6.2-45.3-32.5-84-77.8-77.8
	C1490-144.5,1466.1-154.4,1451.5-173.7z"/>
<path class="st2" d="M52.9,368.8c1.8-2.4,5.4-2.4,7.2,0c1,1.3,2.6,2,4.2,1.8c3-0.4,5.5,2.1,5.1,5.1c-0.2,1.6,0.4,3.2,1.8,4.2
	c2.4,1.8,2.4,5.4,0,7.2c-1.3,1-2,2.6-1.8,4.2c0.4,3-2.1,5.5-5.1,5.1c-1.6-0.2-3.2,0.4-4.2,1.8c-1.8,2.4-5.4,2.4-7.2,0
	c-1-1.3-2.6-2-4.2-1.8c-3,0.4-5.5-2.1-5.1-5.1c0.2-1.6-0.4-3.2-1.8-4.2c-2.4-1.8-2.4-5.4,0-7.2c1.3-1,2-2.6,1.8-4.2
	c-0.4-3,2.1-5.5,5.1-5.1C50.3,370.8,51.9,370.1,52.9,368.8z"/>
<path class="st2" d="M1348.8,394.3c4.3-5.7,13-5.7,17.3,0c2.4,3.1,6.2,4.7,10.1,4.2c7.1-1,13.2,5.1,12.2,12.2
	c-0.5,3.9,1.1,7.8,4.2,10.1c5.7,4.3,5.7,13,0,17.3c-3.1,2.4-4.7,6.2-4.2,10.1c1,7.1-5.1,13.2-12.2,12.2c-3.9-0.5-7.8,1.1-10.1,4.2
	c-4.3,5.7-13,5.7-17.3,0c-2.4-3.1-6.2-4.7-10.1-4.2c-7.1,1-13.2-5.1-12.2-12.2c0.5-3.9-1.1-7.8-4.2-10.1c-5.7-4.3-5.7-13,0-17.3
	c3.1-2.4,4.7-6.2,4.2-10.1c-1-7.1,5.1-13.2,12.2-12.2C1342.6,399,1346.5,397.4,1348.8,394.3z"/>
</svg>
