<svg width="17" height="16" viewBox="0 0 17 16" fill="none" xmlns="http://www.w3.org/2000/svg">
<g id="vuesax/linear/video-square">
<g id="video-square">
<path id="Vector" d="M6.49967 14.6667H10.4997C13.833 14.6667 15.1663 13.3333 15.1663 10V6.00001C15.1663 2.66668 13.833 1.33334 10.4997 1.33334H6.49967C3.16634 1.33334 1.83301 2.66668 1.83301 6.00001V10C1.83301 13.3333 3.16634 14.6667 6.49967 14.6667Z" stroke="white" stroke-linecap="round" stroke-linejoin="round"/>
<path id="Vector_2" d="M6.56641 7.99999V7.01333C6.56641 5.73999 7.46641 5.22666 8.56641 5.85999L9.41974 6.35333L10.2731 6.84666C11.3731 7.47999 11.3731 8.51999 10.2731 9.15333L9.41974 9.64666L8.56641 10.14C7.46641 10.7733 6.56641 10.2533 6.56641 8.98666V7.99999Z" stroke="white" stroke-miterlimit="10" stroke-linecap="round" stroke-linejoin="round"/>
</g>
</g>
</svg>
