<svg width="312" height="499" viewBox="0 0 312 499" fill="none" xmlns="http://www.w3.org/2000/svg">
<path d="M304.491 28.3151C276.876 -8.10502 222.124 -8.10502 194.509 28.3151C179.877 47.6112 155.974 57.5125 131.983 54.214C86.7032 47.9882 47.9882 86.7033 54.214 131.983C57.5125 155.974 47.6112 179.877 28.3151 194.509C-8.10502 222.124 -8.10502 276.876 28.3151 304.491C47.6112 319.123 57.5125 343.026 54.214 367.017C47.9882 412.297 86.7032 451.012 131.983 444.786C155.974 441.488 179.877 451.389 194.509 470.685C222.124 507.105 276.876 507.105 304.491 470.685C319.123 451.389 343.026 441.488 367.017 444.786C412.297 451.012 451.012 412.297 444.786 367.017C441.488 343.026 451.389 319.123 470.685 304.491C507.105 276.876 507.105 222.124 470.685 194.509C451.389 179.877 441.488 155.974 444.786 131.983C451.012 86.7033 412.297 47.9882 367.017 54.214C343.026 57.5125 319.123 47.6112 304.491 28.3151Z" stroke="#A3B6F0" stroke-opacity="0.25" stroke-width="2"/>
</svg>
