<svg width="143" height="143" viewBox="0 0 143 143" fill="none" xmlns="http://www.w3.org/2000/svg">
<path id="Subtract" d="M8.95495 87.5151L9.55915 86.7182L8.95495 87.5151C14.1664 91.4666 16.8405 97.9224 15.9496 104.402C14.1365 117.589 25.4114 128.864 38.5983 127.05C45.0775 126.16 51.5334 128.834 55.4849 134.045C63.5274 144.652 79.4726 144.652 87.5151 134.045C91.4666 128.834 97.9224 126.16 104.402 127.05C117.589 128.864 128.864 117.589 127.05 104.402C126.16 97.9224 128.834 91.4666 134.045 87.5151C144.652 79.4726 144.652 63.5274 134.045 55.4849C128.834 51.5334 126.16 45.0776 127.05 38.5983C128.864 25.4114 117.589 14.1365 104.402 15.9496C97.9224 16.8405 91.4666 14.1664 87.5151 8.95495L86.7182 9.55915L87.5151 8.95495C79.4726 -1.65165 63.5274 -1.65165 55.4849 8.95495C51.5334 14.1664 45.0776 16.8405 38.5983 15.9496C25.4114 14.1365 14.1365 25.4114 15.9496 38.5983C16.8405 45.0776 14.1664 51.5334 8.95495 55.4849C-1.65165 63.5274 -1.65165 79.4726 8.95495 87.5151Z" stroke="#B9CBDC" stroke-width="2"/>
</svg>
