<svg width="40" height="40" viewBox="0 0 40 40" fill="none" xmlns="http://www.w3.org/2000/svg">
<path id="Subtract" fill-rule="evenodd" clip-rule="evenodd" d="M15.6207 2.17529C17.8199 -0.725098 22.1801 -0.725098 24.3793 2.17529C25.5793 3.75785 27.5398 4.56989 29.5073 4.29936C33.1133 3.80357 36.1964 6.88672 35.7006 10.4927C35.4301 12.4602 36.2421 14.4207 37.8247 15.6207C40.7251 17.8199 40.7251 22.1801 37.8247 24.3793C36.2421 25.5793 35.4301 27.5398 35.7006 29.5073C36.1964 33.1133 33.1133 36.1964 29.5073 35.7006C27.5398 35.4301 25.5793 36.2421 24.3793 37.8247C22.1801 40.7251 17.8199 40.7251 15.6207 37.8247C14.4207 36.2421 12.4602 35.4301 10.4927 35.7006C6.88672 36.1964 3.80357 33.1133 4.29936 29.5073C4.56989 27.5398 3.75785 25.5793 2.17529 24.3793C-0.725098 22.1801 -0.725098 17.8199 2.17529 15.6207C3.75785 14.4207 4.56989 12.4602 4.29936 10.4927C3.80357 6.88672 6.88672 3.80357 10.4927 4.29936C12.4602 4.56989 14.4207 3.75785 15.6207 2.17529Z" fill="#A3B6F0" fill-opacity="0.25"/>
</svg>
