<svg width="152" height="32" viewBox="0 0 152 32" fill="none" xmlns="http://www.w3.org/2000/svg">
<g id="Logo">
<g id="Hirescope">
<path d="M17.1326 2.32558V23.876H13.6135V14.4496H3.51913V23.876H0V2.32558H3.51913V11.5659H13.6135V2.32558H17.1326Z" fill="#1D212F"/>
<path d="M23.5559 4.52713C22.9179 4.52713 22.3828 4.31008 21.9507 3.87597C21.5185 3.44186 21.3024 2.90439 21.3024 2.26357C21.3024 1.62274 21.5185 1.08527 21.9507 0.651164C22.3828 0.217055 22.9179 0 23.5559 0C24.1733 0 24.6981 0.217055 25.1302 0.651164C25.5624 1.08527 25.7785 1.62274 25.7785 2.26357C25.7785 2.90439 25.5624 3.44186 25.1302 3.87597C24.6981 4.31008 24.1733 4.52713 23.5559 4.52713ZM25.2846 6.7907V23.876H21.7654V6.7907H25.2846Z" fill="#1D212F"/>
<path d="M33.424 9.27132C33.9385 8.4031 34.6176 7.73127 35.4614 7.25581C36.3258 6.75969 37.3445 6.51163 38.5175 6.51163V10.1705H37.6223C36.2434 10.1705 35.1939 10.522 34.4736 11.2248C33.7739 11.9276 33.424 13.1473 33.424 14.8837V23.876H29.9049V6.7907H33.424V9.27132Z" fill="#1D212F"/>
<path d="M57.3414 14.9147C57.3414 15.5556 57.3003 16.1344 57.2179 16.6512H44.2218C44.3247 18.0155 44.829 19.1111 45.7345 19.938C46.64 20.7649 47.7513 21.1783 49.0684 21.1783C50.9617 21.1783 52.2994 20.3824 53.0814 18.7907H56.8784C56.3639 20.3618 55.4275 21.6537 54.0692 22.6667C52.7316 23.6589 51.0646 24.155 49.0684 24.155C47.4426 24.155 45.9814 23.7933 44.6849 23.0698C43.409 22.3256 42.4005 21.292 41.6597 19.969C40.9394 18.6253 40.5792 17.0749 40.5792 15.3178C40.5792 13.5607 40.9291 12.0207 41.6288 10.6977C42.3491 9.354 43.3472 8.32041 44.6231 7.5969C45.9197 6.87339 47.4014 6.51163 49.0684 6.51163C50.6736 6.51163 52.1039 6.86305 53.3592 7.56589C54.6146 8.26873 55.5921 9.26098 56.2918 10.5426C56.9916 11.8036 57.3414 13.261 57.3414 14.9147ZM53.6679 13.7984C53.6474 12.4961 53.1843 11.4522 52.2788 10.6667C51.3733 9.88114 50.2517 9.48837 48.914 9.48837C47.6998 9.48837 46.6605 9.88114 45.7962 10.6667C44.9318 11.4315 44.4174 12.4755 44.2527 13.7984H53.6679Z" fill="#1D212F"/>
<path d="M66.9785 24.155C65.6408 24.155 64.4369 23.9173 63.3668 23.4419C62.3172 22.9457 61.4837 22.2842 60.8663 21.4574C60.2489 20.6098 59.9197 19.6693 59.8785 18.6357H63.5211C63.5828 19.3592 63.9224 19.969 64.5398 20.4651C65.1778 20.9406 65.9701 21.1783 66.9168 21.1783C67.9046 21.1783 68.666 20.9922 69.2011 20.6202C69.7568 20.2274 70.0346 19.7313 70.0346 19.1318C70.0346 18.491 69.7259 18.0155 69.1085 17.7054C68.5117 17.3953 67.5547 17.0543 66.2376 16.6822C64.9617 16.3307 63.9224 15.9897 63.1198 15.6589C62.3172 15.3282 61.6175 14.8217 61.0207 14.1395C60.4444 13.4574 60.1563 12.5581 60.1563 11.4419C60.1563 10.5323 60.4239 9.70543 60.9589 8.96124C61.494 8.19638 62.2555 7.5969 63.2433 7.16279C64.2517 6.72868 65.4042 6.51163 66.7007 6.51163C68.6352 6.51163 70.1889 7.00775 71.362 8C72.5556 8.97158 73.1936 10.3049 73.2759 12H69.7568C69.695 11.2351 69.3863 10.6253 68.8307 10.1705C68.275 9.71576 67.5239 9.48837 66.5772 9.48837C65.6511 9.48837 64.9411 9.66408 64.4472 10.0155C63.9533 10.3669 63.7063 10.832 63.7063 11.4109C63.7063 11.8656 63.871 12.2481 64.2002 12.5581C64.5295 12.8682 64.9308 13.1163 65.4042 13.3023C65.8775 13.4677 66.5772 13.6848 67.5033 13.9535C68.7381 14.2842 69.7465 14.6253 70.5285 14.9767C71.3311 15.3075 72.0205 15.8036 72.5968 16.4651C73.173 17.1266 73.4714 18.0052 73.492 19.1008C73.492 20.0723 73.2244 20.9406 72.6894 21.7054C72.1543 22.4703 71.3929 23.0698 70.405 23.5039C69.4378 23.938 68.2956 24.155 66.9785 24.155Z" fill="#1D212F"/>
<path d="M76.1214 15.3178C76.1214 13.5607 76.4713 12.0207 77.171 10.6977C77.8913 9.354 78.8791 8.32041 80.1345 7.5969C81.3898 6.87339 82.8304 6.51163 84.4562 6.51163C86.5142 6.51163 88.212 7.00775 89.5497 8C90.908 8.97158 91.8238 10.3669 92.2971 12.186H88.5001C88.1914 11.3385 87.6975 10.677 87.0184 10.2015C86.3393 9.7261 85.4852 9.48837 84.4562 9.48837C83.0156 9.48837 81.8632 10.0052 80.9988 11.0388C80.1551 12.0517 79.7332 13.478 79.7332 15.3178C79.7332 17.1576 80.1551 18.5943 80.9988 19.6279C81.8632 20.6615 83.0156 21.1783 84.4562 21.1783C86.4936 21.1783 87.8416 20.2791 88.5001 18.4806H92.2971C91.8032 20.2171 90.8771 21.6021 89.5188 22.6357C88.1606 23.6486 86.473 24.155 84.4562 24.155C82.8304 24.155 81.3898 23.7933 80.1345 23.0698C78.8791 22.3256 77.8913 21.292 77.171 19.969C76.4713 18.6253 76.1214 17.0749 76.1214 15.3178Z" fill="#1D212F"/>
<path d="M119.009 9.30233C119.605 8.5168 120.418 7.8553 121.447 7.31783C122.476 6.78036 123.639 6.51163 124.936 6.51163C126.417 6.51163 127.765 6.88372 128.98 7.62791C130.214 8.35142 131.182 9.37468 131.881 10.6977C132.581 12.0207 132.931 13.5401 132.931 15.2558C132.931 16.9716 132.581 18.5116 131.881 19.876C131.182 21.2196 130.214 22.2739 128.98 23.0388C127.765 23.7829 126.417 24.155 124.936 24.155C123.639 24.155 122.487 23.8966 121.478 23.3798C120.47 22.8424 119.647 22.1809 119.009 21.3953V32H115.49V6.7907H119.009V9.30233ZM129.35 15.2558C129.35 14.0775 129.103 13.0646 128.609 12.2171C128.136 11.3488 127.498 10.6977 126.695 10.2636C125.913 9.80879 125.069 9.5814 124.164 9.5814C123.279 9.5814 122.435 9.80879 121.633 10.2636C120.851 10.7183 120.213 11.3798 119.719 12.2481C119.245 13.1163 119.009 14.1395 119.009 15.3178C119.009 16.4961 119.245 17.5297 119.719 18.4186C120.213 19.2868 120.851 19.9483 121.633 20.4031C122.435 20.8579 123.279 21.0853 124.164 21.0853C125.069 21.0853 125.913 20.8579 126.695 20.4031C127.498 19.9276 128.136 19.2455 128.609 18.3566C129.103 17.4677 129.35 16.4341 129.35 15.2558Z" fill="#1D212F"/>
<path d="M152 14.9147C152 15.5556 151.959 16.1344 151.877 16.6512H138.88C138.983 18.0155 139.488 19.1111 140.393 19.938C141.299 20.7649 142.41 21.1783 143.727 21.1783C145.62 21.1783 146.958 20.3824 147.74 18.7907H151.537C151.022 20.3618 150.086 21.6537 148.728 22.6667C147.39 23.6589 145.723 24.155 143.727 24.155C142.101 24.155 140.64 23.7933 139.343 23.0698C138.068 22.3256 137.059 21.292 136.318 19.969C135.598 18.6253 135.238 17.0749 135.238 15.3178C135.238 13.5607 135.588 12.0207 136.287 10.6977C137.008 9.354 138.006 8.32041 139.282 7.5969C140.578 6.87339 142.06 6.51163 143.727 6.51163C145.332 6.51163 146.762 6.86305 148.018 7.56589C149.273 8.26873 150.251 9.26098 150.95 10.5426C151.65 11.8036 152 13.261 152 14.9147ZM148.327 13.7984C148.306 12.4961 147.843 11.4522 146.937 10.6667C146.032 9.88114 144.91 9.48837 143.573 9.48837C142.358 9.48837 141.319 9.88114 140.455 10.6667C139.59 11.4315 139.076 12.4755 138.911 13.7984H148.327Z" fill="#1D212F"/>
</g>
<path id="Subtract" fill-rule="evenodd" clip-rule="evenodd" d="M101.898 6.64534C102.954 5.25315 105.047 5.25315 106.102 6.64534C106.678 7.40496 107.619 7.79474 108.564 7.66489C110.295 7.42691 111.774 8.90682 111.536 10.6377C111.407 11.5821 111.796 12.5231 112.556 13.0991C113.948 14.1547 113.948 16.2477 112.556 17.3033C111.796 17.8793 111.407 18.8203 111.536 19.7647C111.774 21.4956 110.295 22.9755 108.564 22.7375C107.619 22.6076 106.678 22.9974 106.102 23.7571C105.047 25.1492 102.954 25.1492 101.898 23.7571C101.322 22.9974 100.381 22.6076 99.4366 22.7375C97.7058 22.9755 96.2259 21.4956 96.4638 19.7647C96.5937 18.8203 96.2039 17.8793 95.4443 17.3033C94.0521 16.2477 94.0521 14.1547 95.4443 13.0991C96.2039 12.5231 96.5937 11.5821 96.4638 10.6377C96.2259 8.90682 97.7058 7.42691 99.4366 7.66489C100.381 7.79474 101.322 7.40496 101.898 6.64534ZM104 20.8012C107.314 20.8012 109.6 18.5149 109.6 15.2012C109.6 11.8875 107.314 9.6012 104 9.6012C100.686 9.6012 98.4001 11.8875 98.4001 15.2012C98.4001 18.5149 100.686 20.8012 104 20.8012Z" fill="#4069E5"/>
<path id="Subtract_2" d="M101.6 24.625V28.0526C101.6 28.372 101.956 28.5626 102.222 28.3854L103.778 27.3479C103.912 27.2583 104.087 27.2583 104.222 27.3479L105.778 28.3854C106.044 28.5626 106.4 28.372 106.4 28.0526V24.625C105.073 25.925 102.927 25.925 101.6 24.625Z" fill="#1D212F"/>
</g>
</svg>
