<svg width="64" height="300" viewBox="0 0 64 300" fill="none" xmlns="http://www.w3.org/2000/svg">
<path d="M183.005 17.644C166.43 -4.21468 133.57 -4.21467 116.995 17.644C108.279 29.139 94.0394 35.0373 79.7481 33.0723C52.5718 29.3357 29.3357 52.5718 33.0723 79.7481C35.0373 94.0395 29.139 108.279 17.644 116.995C-4.21467 133.57 -4.21467 166.43 17.644 183.005C29.139 191.721 35.0373 205.961 33.0723 220.252C29.3357 247.428 52.5718 270.664 79.7481 266.928C94.0394 264.963 108.279 270.861 116.995 282.356C133.57 304.215 166.43 304.215 183.005 282.356C191.721 270.861 205.961 264.963 220.252 266.928C247.428 270.664 270.664 247.428 266.928 220.252C264.963 205.961 270.861 191.721 282.356 183.005C304.215 166.43 304.215 133.57 282.356 116.995C270.861 108.279 264.963 94.0394 266.928 79.7481C270.664 52.5718 247.428 29.3357 220.252 33.0723C205.961 35.0373 191.721 29.139 183.005 17.644Z" stroke="#A3B6F0" stroke-opacity="0.5" stroke-width="1.5"/>
</svg>
