<svg width="1440" height="1529" viewBox="0 0 1440 1529" fill="none" xmlns="http://www.w3.org/2000/svg">
<path opacity="0.25" d="M0 0H1440V361.296C1440 374.034 1430.05 384.553 1417.33 385.259L25.3313 462.593C11.5745 463.357 0 452.408 0 438.63V0Z" fill="#B9CBDC"/>
<path d="M1447.49 -173.685C1419.88 -210.105 1365.12 -210.105 1337.51 -173.685C1322.88 -154.389 1298.97 -144.488 1274.98 -147.786C1229.7 -154.012 1190.99 -115.297 1197.21 -70.0167C1200.51 -46.0263 1190.61 -22.1226 1171.32 -7.49123C1134.89 20.1244 1134.89 74.8757 1171.32 102.491C1190.61 117.123 1200.51 141.026 1197.21 165.017C1190.99 210.297 1229.7 249.012 1274.98 242.786C1298.97 239.488 1322.88 249.389 1337.51 268.685C1365.12 305.105 1419.88 305.105 1447.49 268.685C1462.12 249.389 1486.03 239.488 1510.02 242.786C1555.3 249.012 1594.01 210.297 1587.79 165.017C1584.49 141.026 1594.39 117.123 1613.68 102.491C1650.11 74.8757 1650.11 20.1244 1613.68 -7.49123C1594.39 -22.1226 1584.49 -46.0263 1587.79 -70.0167C1594.01 -115.297 1555.3 -154.012 1510.02 -147.786C1486.03 -144.488 1462.12 -154.389 1447.49 -173.685Z" stroke="#B9CBDC" stroke-opacity="0.25" stroke-width="2"/>
<path fill-rule="evenodd" clip-rule="evenodd" d="M76.887 681.795C78.7014 679.402 82.2986 679.402 84.113 681.795C85.1029 683.1 86.7203 683.77 88.3435 683.547C91.3185 683.138 93.8621 685.682 93.453 688.656C93.2298 690.28 93.8998 691.897 95.2054 692.887C97.5982 694.701 97.5982 698.299 95.2054 700.113C93.8998 701.103 93.2298 702.72 93.453 704.344C93.8621 707.318 91.3185 709.862 88.3435 709.453C86.7203 709.23 85.1029 709.9 84.113 711.205C82.2986 713.598 78.7014 713.598 76.887 711.205C75.8971 709.9 74.2797 709.23 72.6565 709.453C69.6815 709.862 67.1379 707.318 67.547 704.344C67.7702 702.72 67.1002 701.103 65.7946 700.113C63.4018 698.299 63.4018 694.701 65.7946 692.887C67.1002 691.897 67.7702 690.28 67.547 688.656C67.1379 685.682 69.6815 683.138 72.6565 683.547C74.2797 683.77 75.8971 683.1 76.887 681.795Z" fill="#A3B6F0" fill-opacity="0.25"/>
<path d="M151.26 484.345C145.856 477.218 135.144 477.218 129.74 484.345C127.229 487.657 123.125 489.357 119.007 488.79C110.147 487.572 102.572 495.147 103.79 504.007C104.357 508.125 102.657 512.229 99.3446 514.74C92.2185 520.144 92.2185 530.856 99.3446 536.26C102.657 538.771 104.357 542.875 103.79 546.993C102.572 555.853 110.147 563.428 119.007 562.21C123.125 561.643 127.229 563.343 129.74 566.655C135.144 573.782 145.856 573.782 151.26 566.655C153.771 563.343 157.875 561.643 161.993 562.21C170.853 563.428 178.428 555.853 177.21 546.993C176.643 542.875 178.343 538.771 181.655 536.26C188.782 530.856 188.782 520.144 181.655 514.74C178.343 512.229 176.643 508.125 177.21 504.007C178.428 495.147 170.853 487.572 161.993 488.79C157.875 489.357 153.771 487.657 151.26 484.345Z" stroke="#B9CBDC" stroke-width="2"/>
<path fill-rule="evenodd" clip-rule="evenodd" d="M942.851 125.296C947.194 119.568 955.806 119.568 960.149 125.296C962.519 128.422 966.391 130.026 970.277 129.491C977.399 128.512 983.488 134.601 982.509 141.723C981.974 145.609 983.578 149.481 986.704 151.851C992.432 156.194 992.432 164.806 986.704 169.149C983.578 171.519 981.974 175.391 982.509 179.277C983.488 186.399 977.399 192.488 970.277 191.509C966.391 190.974 962.519 192.578 960.149 195.704C955.806 201.432 947.194 201.432 942.851 195.704C940.481 192.578 936.609 190.974 932.723 191.509C925.601 192.488 919.512 186.399 920.491 179.277C921.026 175.391 919.422 171.519 916.296 169.149C910.568 164.806 910.568 156.194 916.296 151.851C919.422 149.481 921.026 145.609 920.491 141.723C919.512 134.601 925.601 128.512 932.723 129.491C936.609 130.026 940.481 128.422 942.851 125.296Z" fill="#A3B6F0" fill-opacity="0.25"/>
<path d="M1551.49 1058.32C1523.88 1021.89 1469.12 1021.89 1441.51 1058.32C1426.88 1077.61 1402.97 1087.51 1378.98 1084.21C1333.7 1077.99 1294.99 1116.7 1301.21 1161.98C1304.51 1185.97 1294.61 1209.88 1275.32 1224.51C1238.89 1252.12 1238.89 1306.88 1275.32 1334.49C1294.61 1349.12 1304.51 1373.03 1301.21 1397.02C1294.99 1442.3 1333.7 1481.01 1378.98 1474.79C1402.97 1471.49 1426.88 1481.39 1441.51 1500.68C1469.12 1537.11 1523.88 1537.11 1551.49 1500.68C1566.12 1481.39 1590.03 1471.49 1614.02 1474.79C1659.3 1481.01 1698.01 1442.3 1691.79 1397.02C1688.49 1373.03 1698.39 1349.12 1717.68 1334.49C1754.11 1306.88 1754.11 1252.12 1717.68 1224.51C1698.39 1209.88 1688.49 1185.97 1691.79 1161.98C1698.01 1116.7 1659.3 1077.99 1614.02 1084.21C1590.03 1087.51 1566.12 1077.61 1551.49 1058.32Z" stroke="#A3B6F0" stroke-opacity="0.25" stroke-width="2"/>
</svg>
