<svg width="79" height="79" viewBox="0 0 79 79" fill="none" xmlns="http://www.w3.org/2000/svg">
<path id="Subtract" fill-rule="evenodd" clip-rule="evenodd" d="M30.8508 4.29621C35.1943 -1.43207 43.8057 -1.43207 48.1492 4.29621C50.5192 7.42175 54.391 9.02553 58.2769 8.49124C65.3987 7.51204 71.488 13.6013 70.5088 20.7231C69.9745 24.609 71.5782 28.4808 74.7038 30.8508C80.4321 35.1943 80.4321 43.8057 74.7038 48.1492C71.5782 50.5192 69.9745 54.391 70.5088 58.2769C71.488 65.3987 65.3987 71.488 58.2769 70.5088C54.391 69.9745 50.5192 71.5782 48.1492 74.7038C43.8057 80.4321 35.1943 80.4321 30.8508 74.7038C28.4808 71.5782 24.609 69.9745 20.7231 70.5088C13.6013 71.488 7.51204 65.3987 8.49124 58.2769C9.02553 54.391 7.42175 50.5192 4.29621 48.1492C-1.43207 43.8057 -1.43207 35.1943 4.29621 30.8508C7.42175 28.4808 9.02553 24.609 8.49124 20.7231C7.51204 13.6013 13.6013 7.51204 20.7231 8.49124C24.609 9.02553 28.4808 7.42175 30.8508 4.29621Z" fill="#8CA0E4"/>
</svg>
