<svg width="1440" height="746" viewBox="0 0 1440 746" fill="none" xmlns="http://www.w3.org/2000/svg">
<path d="M1447.49 162.315C1419.88 125.895 1365.12 125.895 1337.51 162.315C1322.88 181.611 1298.97 191.512 1274.98 188.214C1229.7 181.988 1190.99 220.703 1197.21 265.983C1200.51 289.974 1190.61 313.877 1171.32 328.509C1134.89 356.124 1134.89 410.876 1171.32 438.491C1190.61 453.123 1200.51 477.026 1197.21 501.017C1190.99 546.297 1229.7 585.012 1274.98 578.786C1298.97 575.488 1322.88 585.389 1337.51 604.685C1365.12 641.105 1419.88 641.105 1447.49 604.685C1462.12 585.389 1486.03 575.488 1510.02 578.786C1555.3 585.012 1594.01 546.297 1587.79 501.017C1584.49 477.026 1594.39 453.123 1613.68 438.491C1650.11 410.876 1650.11 356.124 1613.68 328.509C1594.39 313.877 1584.49 289.974 1587.79 265.983C1594.01 220.703 1555.3 181.988 1510.02 188.214C1486.03 191.512 1462.12 181.611 1447.49 162.315Z" stroke="#B9CBDC" stroke-opacity="0.25" stroke-width="2"/>
<path opacity="0.5" fill-rule="evenodd" clip-rule="evenodd" d="M1356.89 680.795C1358.7 678.402 1362.3 678.402 1364.11 680.795C1365.1 682.1 1366.72 682.77 1368.34 682.547C1371.32 682.138 1373.86 684.682 1373.45 687.656C1373.23 689.28 1373.9 690.897 1375.21 691.887C1377.6 693.701 1377.6 697.299 1375.21 699.113C1373.9 700.103 1373.23 701.72 1373.45 703.344C1373.86 706.318 1371.32 708.862 1368.34 708.453C1366.72 708.23 1365.1 708.9 1364.11 710.205C1362.3 712.598 1358.7 712.598 1356.89 710.205C1355.9 708.9 1354.28 708.23 1352.66 708.453C1349.68 708.862 1347.14 706.318 1347.55 703.344C1347.77 701.72 1347.1 700.103 1345.79 699.113C1343.4 697.299 1343.4 693.701 1345.79 691.887C1347.1 690.897 1347.77 689.28 1347.55 687.656C1347.14 684.682 1349.68 682.138 1352.66 682.547C1354.28 682.77 1355.9 682.1 1356.89 680.795Z" fill="#E8EAEA"/>
<path d="M17.172 606.281C8.79961 595.24 -7.79961 595.24 -16.172 606.281C-20.3035 611.73 -27.0534 614.526 -33.8278 613.595C-47.5555 611.707 -59.293 623.444 -57.4055 637.172C-56.4741 643.947 -59.2699 650.696 -64.7188 654.828C-75.7604 663.2 -75.7604 679.8 -64.7188 688.172C-59.2699 692.304 -56.4741 699.053 -57.4055 705.828C-59.293 719.556 -47.5555 731.293 -33.8278 729.405C-27.0534 728.474 -20.3035 731.27 -16.172 736.719C-7.79961 747.76 8.79961 747.76 17.172 736.719C21.3035 731.27 28.0534 728.474 34.8278 729.405C48.5555 731.293 60.293 719.556 58.4055 705.828C57.4741 699.053 60.27 692.304 65.7188 688.172C76.7604 679.8 76.7604 663.2 65.7188 654.828C60.27 650.696 57.4741 643.947 58.4055 637.172C60.293 623.444 48.5555 611.707 34.8278 613.595C28.0534 614.526 21.3035 611.73 17.172 606.281Z" stroke="#B9CBDC" stroke-width="2"/>
<path opacity="0.5" fill-rule="evenodd" clip-rule="evenodd" d="M870.851 515.296C875.194 509.568 883.806 509.568 888.149 515.296C890.519 518.422 894.391 520.026 898.277 519.491C905.399 518.512 911.488 524.601 910.509 531.723C909.974 535.609 911.578 539.481 914.704 541.851C920.432 546.194 920.432 554.806 914.704 559.149C911.578 561.519 909.974 565.391 910.509 569.277C911.488 576.399 905.399 582.488 898.277 581.509C894.391 580.974 890.519 582.578 888.149 585.704C883.806 591.432 875.194 591.432 870.851 585.704C868.481 582.578 864.609 580.974 860.723 581.509C853.601 582.488 847.512 576.399 848.491 569.277C849.026 565.391 847.422 561.519 844.296 559.149C838.568 554.806 838.568 546.194 844.296 541.851C847.422 539.481 849.026 535.609 848.491 531.723C847.512 524.601 853.601 518.512 860.723 519.491C864.609 520.026 868.481 518.422 870.851 515.296Z" fill="#E8EAEA"/>
<path d="M1440 0H0V384L1144 472L1440 384V0Z" fill="#E8EAEA" fill-opacity="0.5"/>
</svg>
