<svg width="40" height="40" viewBox="0 0 40 40" fill="none" xmlns="http://www.w3.org/2000/svg">
<g id="vuesax/linear/document-like">
<g id="document-like">
<path id="Vector" d="M35 11.6666V28.3333C35 33.3333 32.5 36.6666 26.6667 36.6666H13.3333C7.5 36.6666 5 33.3333 5 28.3333V11.6666C5 6.66665 7.5 3.33331 13.3333 3.33331H26.6667C32.5 3.33331 35 6.66665 35 11.6666Z" fill="#EBF0FF" stroke="#8CA0E4" stroke-width="1.5" stroke-miterlimit="10" stroke-linecap="round" stroke-linejoin="round"/>
<g id="Vector_2">
<path d="M24.167 7.5V10.8333C24.167 12.6667 25.667 14.1667 27.5003 14.1667H30.8337" fill="#EBF0FF"/>
<path d="M24.167 7.5V10.8333C24.167 12.6667 25.667 14.1667 27.5003 14.1667H30.8337" stroke="#8CA0E4" stroke-width="1.5" stroke-miterlimit="10" stroke-linecap="round" stroke-linejoin="round"/>
</g>
<path id="Vector_3" d="M12.4662 25.8166C11.9162 24.1 12.5662 21.9834 14.3495 21.4C15.2995 21.1 16.4662 21.35 17.1162 22.2666C17.7329 21.3166 18.9495 21.1 19.8829 21.4C21.6829 21.9834 22.3162 24.1 21.7829 25.8166C20.9329 28.5333 17.9495 29.9499 17.1162 29.9499C16.2995 29.9333 13.3496 28.55 12.4662 25.8166Z" fill="#EBF0FF" stroke="#8CA0E4" stroke-width="1.5" stroke-linecap="round" stroke-linejoin="round"/>
</g>
</g>
</svg>
