<svg width="40" height="40" viewBox="0 0 40 40" fill="none" xmlns="http://www.w3.org/2000/svg">
<g id="vuesax/linear/heart-tick">
<g id="heart-tick">
<g id="Group">
<path id="Vector" d="M36.667 28.6665C36.667 30.1665 36.2503 31.5831 35.5003 32.7831C34.117 35.0998 31.5837 36.6665 28.667 36.6665C25.7503 36.6665 23.2003 35.0998 21.8337 32.7831C21.1003 31.5831 20.667 30.1665 20.667 28.6665C20.667 24.2498 24.2503 20.6665 28.667 20.6665C33.0837 20.6665 36.667 24.2498 36.667 28.6665Z" stroke="#8CA0E4" stroke-width="1.5" stroke-miterlimit="10" stroke-linecap="round" stroke-linejoin="round"/>
<path id="Vector_2" d="M25.5508 28.6664L27.5174 30.633L31.7841 26.6997" stroke="#8CA0E4" stroke-width="1.5" stroke-linecap="round" stroke-linejoin="round"/>
</g>
<g id="Group_2">
<path id="Vector_3" d="M36.6663 14.4832C36.6663 17.7665 35.8163 20.6665 34.483 23.1832C33.0163 21.6332 30.9497 20.6666 28.6663 20.6666C24.2497 20.6666 20.6663 24.2499 20.6663 28.6666C20.6663 30.7166 21.4497 32.5833 22.7163 33.9999C22.0997 34.2833 21.533 34.5165 21.033 34.6832C20.4663 34.8832 19.533 34.8832 18.9663 34.6832C14.133 33.0332 3.33301 26.1499 3.33301 14.4832C3.33301 9.33322 7.48301 5.1665 12.5997 5.1665C15.6163 5.1665 18.3163 6.63324 19.9997 8.88324C21.683 6.63324 24.383 5.1665 27.3997 5.1665C32.5163 5.1665 36.6663 9.33322 36.6663 14.4832Z" stroke="#8CA0E4" stroke-width="1.5" stroke-linecap="round" stroke-linejoin="round"/>
</g>
</g>
</g>
</svg>
