<svg width="40" height="40" viewBox="0 0 40 40" fill="none" xmlns="http://www.w3.org/2000/svg">
<g id="vuesax/linear/home-trend-up">
<g id="home-trend-up">
<path id="Vector" d="M15.033 4.73328L6.04967 11.7333C4.54967 12.8999 3.33301 15.3833 3.33301 17.2666V29.6166C3.33301 33.4833 6.48301 36.6499 10.3497 36.6499H29.6497C33.5163 36.6499 36.6663 33.4833 36.6663 29.6333V17.4999C36.6663 15.4833 35.3163 12.8999 33.6663 11.7499L23.3663 4.53328C21.033 2.89995 17.283 2.98328 15.033 4.73328Z" fill="#EBF0FF" stroke="#8CA0E4" stroke-width="1.5" stroke-linecap="round" stroke-linejoin="round"/>
<g id="Vector_2">
<path d="M27.5 19.1665L20.5 26.1665L17.8333 22.1665L12.5 27.4998" fill="#EBF0FF"/>
<path d="M27.5 19.1665L20.5 26.1665L17.8333 22.1665L12.5 27.4998" stroke="#8CA0E4" stroke-width="1.5" stroke-linecap="round" stroke-linejoin="round"/>
</g>
<g id="Vector_3">
<path d="M24.167 19.1665H27.5003V22.4998" fill="#EBF0FF"/>
<path d="M24.167 19.1665H27.5003V22.4998" stroke="#8CA0E4" stroke-width="1.5" stroke-linecap="round" stroke-linejoin="round"/>
</g>
</g>
</g>
</svg>
