<svg width="40" height="40" viewBox="0 0 40 40" fill="none" xmlns="http://www.w3.org/2000/svg">
<path d="M29.9998 11.9333C29.8998 11.9166 29.7831 11.9166 29.6831 11.9333C27.3831 11.8499 25.5498 9.96659 25.5498 7.63326C25.5498 5.24992 27.4665 3.33325 29.8498 3.33325C32.2331 3.33325 34.1498 5.26659 34.1498 7.63326C34.1331 9.96659 32.2998 11.8499 29.9998 11.9333Z" fill="#EBF0FF" stroke="#8CA0E4" stroke-width="1.5" stroke-linecap="round" stroke-linejoin="round"/>
<path d="M28.2834 24.0666C30.5667 24.4499 33.0834 24.0499 34.8501 22.8666C37.2001 21.2999 37.2001 18.7333 34.8501 17.1666C33.0667 15.9833 30.5167 15.5833 28.2334 15.9833" fill="#EBF0FF"/>
<path d="M28.2834 24.0666C30.5667 24.4499 33.0834 24.0499 34.8501 22.8666C37.2001 21.2999 37.2001 18.7333 34.8501 17.1666C33.0667 15.9833 30.5167 15.5833 28.2334 15.9833" stroke="#8CA0E4" stroke-width="1.5" stroke-linecap="round" stroke-linejoin="round"/>
<path d="M9.95078 11.9333C10.0508 11.9166 10.1674 11.9166 10.2674 11.9333C12.5674 11.8499 14.4008 9.96659 14.4008 7.63326C14.4008 5.24992 12.4841 3.33325 10.1008 3.33325C7.71745 3.33325 5.80078 5.26659 5.80078 7.63326C5.81745 9.96659 7.65078 11.8499 9.95078 11.9333Z" fill="#EBF0FF" stroke="#8CA0E4" stroke-width="1.5" stroke-linecap="round" stroke-linejoin="round"/>
<path d="M11.6671 24.0666C9.38372 24.4499 6.86706 24.0499 5.10039 22.8666C2.75039 21.2999 2.75039 18.7333 5.10039 17.1666C6.88372 15.9833 9.43372 15.5833 11.7171 15.9833" fill="#EBF0FF"/>
<path d="M11.6671 24.0666C9.38372 24.4499 6.86706 24.0499 5.10039 22.8666C2.75039 21.2999 2.75039 18.7333 5.10039 17.1666C6.88372 15.9833 9.43372 15.5833 11.7171 15.9833" stroke="#8CA0E4" stroke-width="1.5" stroke-linecap="round" stroke-linejoin="round"/>
<path d="M19.9998 24.3835C19.8998 24.3668 19.7831 24.3668 19.6831 24.3835C17.3831 24.3001 15.5498 22.4168 15.5498 20.0834C15.5498 17.7001 17.4665 15.7834 19.8498 15.7834C22.2331 15.7834 24.1498 17.7168 24.1498 20.0834C24.1331 22.4168 22.2998 24.3168 19.9998 24.3835Z" stroke="#8CA0E4" stroke-width="1.5" stroke-linecap="round" stroke-linejoin="round"/>
<path d="M15.1502 29.6333C12.8002 31.2 12.8002 33.7667 15.1502 35.3333C17.8169 37.1167 22.1835 37.1167 24.8502 35.3333C27.2002 33.7667 27.2002 31.2 24.8502 29.6333C22.2002 27.8667 17.8169 27.8667 15.1502 29.6333Z" stroke="#8CA0E4" stroke-width="1.5" stroke-linecap="round" stroke-linejoin="round"/>
</svg>
