<svg width="40" height="40" viewBox="0 0 40 40" fill="none" xmlns="http://www.w3.org/2000/svg">
<rect width="40" height="40" rx="12" fill="#EBF0FF"/>
<path d="M3.33301 15V10.8333C3.33301 6.68331 6.68301 3.33331 10.833 3.33331H14.9997" stroke="#8CA0E4" stroke-width="1.5" stroke-linecap="round" stroke-linejoin="round"/>
<path d="M25 3.33331H29.1667C33.3167 3.33331 36.6667 6.68331 36.6667 10.8333V15" stroke="#8CA0E4" stroke-width="1.5" stroke-linecap="round" stroke-linejoin="round"/>
<path d="M36.667 26.6666V29.1666C36.667 33.3166 33.317 36.6666 29.167 36.6666H26.667" stroke="#8CA0E4" stroke-width="1.5" stroke-linecap="round" stroke-linejoin="round"/>
<path d="M14.9997 36.6667H10.833C6.68301 36.6667 3.33301 33.3167 3.33301 29.1667V25" stroke="#8CA0E4" stroke-width="1.5" stroke-linecap="round" stroke-linejoin="round"/>
<path d="M28.3337 15.8333V24.1666C28.3337 27.5 26.667 29.1666 23.3337 29.1666H16.667C13.3337 29.1666 11.667 27.5 11.667 24.1666V15.8333C11.667 12.5 13.3337 10.8333 16.667 10.8333H23.3337C26.667 10.8333 28.3337 12.5 28.3337 15.8333Z" stroke="#8CA0E4" stroke-width="1.5" stroke-linecap="round" stroke-linejoin="round"/>
<path d="M31.6663 20H8.33301" stroke="#8CA0E4" stroke-width="1.5" stroke-linecap="round" stroke-linejoin="round"/>
</svg>
