<svg width="40" height="40" viewBox="0 0 40 40" fill="none" xmlns="http://www.w3.org/2000/svg">
<g id="vuesax/linear/sms-star">
<g id="sms-star">
<g id="Vector">
<path d="M36.6663 19.1668V25.8335C36.6663 31.6668 33.333 34.1668 28.333 34.1668H11.6663C6.66634 34.1668 3.33301 31.6668 3.33301 25.8335V14.1668C3.33301 8.3335 6.66634 5.8335 11.6663 5.8335H19.9997" fill="#EBF0FF"/>
<path d="M36.6663 19.1668V25.8335C36.6663 31.6668 33.333 34.1668 28.333 34.1668H11.6663C6.66634 34.1668 3.33301 31.6668 3.33301 25.8335V14.1668C3.33301 8.3335 6.66634 5.8335 11.6663 5.8335H19.9997" stroke="#8CA0E4" stroke-width="1.5" stroke-miterlimit="10" stroke-linecap="round" stroke-linejoin="round"/>
</g>
<g id="Vector_2">
<path d="M11.667 15L16.8837 19.1667C18.6003 20.5333 21.417 20.5333 23.1337 19.1667" fill="#EBF0FF"/>
<path d="M11.667 15L16.8837 19.1667C18.6003 20.5333 21.417 20.5333 23.1337 19.1667" stroke="#8CA0E4" stroke-width="1.5" stroke-miterlimit="10" stroke-linecap="round" stroke-linejoin="round"/>
</g>
<g id="Group">
<path id="Vector_3" d="M32.4664 4.6999L32.933 5.64989C33.1664 6.11656 33.7497 6.5499 34.2664 6.6499L34.8997 6.7499C36.7997 7.06656 37.2497 8.46656 35.883 9.8499L35.2997 10.4332C34.9164 10.8332 34.6997 11.5999 34.8164 12.1332L34.8997 12.4832C35.4164 14.7832 34.1997 15.6665 32.1997 14.4665L31.7664 14.2166C31.2497 13.9166 30.4164 13.9166 29.8997 14.2166L29.4664 14.4665C27.4497 15.6832 26.233 14.7832 26.7664 12.4832L26.8497 12.1332C26.9663 11.5999 26.7497 10.8332 26.3664 10.4332L25.783 9.8499C24.4164 8.46656 24.8664 7.06656 26.7664 6.7499L27.3997 6.6499C27.8997 6.56657 28.4997 6.11656 28.733 5.64989L29.1997 4.6999C30.0997 2.88324 31.5664 2.88324 32.4664 4.6999Z" fill="#EBF0FF" stroke="#8CA0E4" stroke-width="1.5" stroke-linecap="round" stroke-linejoin="round"/>
</g>
</g>
</g>
</svg>
